<svg width="47" height="47" viewBox="0 0 47 47" fill="none" xmlns="http://www.w3.org/2000/svg">
<path d="M21.1582 4.06357L15.8299 14.867L3.90853 16.6051L36.4726 41.5912M21.1582 4.06357L22.5032 4.72763M21.1582 4.06357L22.5035 4.72707L22.5032 4.72763M21.1582 4.06357L36.4724 41.5902M22.5032 4.72763L17.1752 15.5305C16.9568 15.9732 16.5347 16.2801 16.0463 16.3514L4.12493 18.0894L4.12384 18.0895C3.21794 18.2209 2.85076 19.343 3.51069 19.9856L3.51111 19.986L12.1359 28.3905C12.4897 28.7352 12.6511 29.232 12.5674 29.7188L10.5277 41.5902M22.5032 4.72763C22.9079 3.90797 24.0856 3.90021 24.4974 4.72876C24.4976 4.72911 24.4978 4.72947 24.498 4.72983L29.8249 15.5305C30.0432 15.9732 30.4653 16.2801 30.9538 16.3514L42.8751 18.0894L42.8762 18.0895C43.7821 18.2209 44.1493 19.343 43.4894 19.9856L43.4889 19.986L34.8641 28.3905C34.5104 28.7352 34.349 29.232 34.4326 29.7188L36.4724 41.5902M10.5277 41.5902L9.04916 41.3372L10.5275 41.5912L10.5277 41.5902ZM10.5277 41.5902C10.372 42.5 11.3322 43.1861 12.1327 42.7617L12.1374 42.7592L22.8021 37.1535C23.2391 36.9239 23.761 36.9239 24.1979 37.1535L34.8627 42.7593L34.8629 42.7594C35.6735 43.1856 36.6258 42.4914 36.4726 41.5912M36.4726 41.5912L36.4724 41.5902M36.4726 41.5912L36.4724 41.5902" fill="white" stroke="#1B5993" stroke-width="3" stroke-linejoin="round"/>
</svg>
