<svg width="211" height="121" viewBox="0 0 211 121" fill="none" xmlns="http://www.w3.org/2000/svg">
<mask id="mask0_5:47" style="mask-type:alpha" maskUnits="userSpaceOnUse" x="0" y="0" width="211" height="121">
<g clip-path="url(#clip0_5:47)">
<path d="M31.872 60.6C38.272 60.6 43.584 63.032 47.808 67.896C52.096 72.76 54.24 78.712 54.24 85.752V102.648C54.24 104.12 54.176 105.24 54.048 106.008C53.984 106.712 53.696 107.544 53.184 108.504C52.352 110.168 49.888 111 45.792 111C41.888 111 39.456 110.168 38.496 108.504C37.984 107.544 37.664 106.68 37.536 105.912C37.472 105.144 37.44 103.992 37.44 102.456V85.656C37.44 83.032 36.704 80.984 35.232 79.512C33.76 78.04 31.872 77.304 29.568 77.304C27.328 77.304 25.344 78.008 23.616 79.416C21.888 80.76 20.896 82.296 20.64 84.024V102.648C20.64 104.12 20.576 105.24 20.448 106.008C20.384 106.712 20.096 107.544 19.584 108.504C18.752 110.168 16.288 111 12.192 111C8.16 111 5.696 110.136 4.8 108.408C4.352 107.448 4.064 106.616 3.936 105.912C3.872 105.208 3.84 104.088 3.84 102.552V45.144C3.84 43.672 3.872 42.584 3.936 41.88C4.064 41.112 4.352 40.28 4.8 39.384C5.696 37.656 8.192 36.792 12.288 36.792C16.32 36.792 18.752 37.656 19.584 39.384C20.096 40.344 20.384 41.208 20.448 41.976C20.576 42.68 20.64 43.768 20.64 45.24V66.456C23.84 62.552 27.584 60.6 31.872 60.6ZM88.077 65.784C88.461 62.2 90.989 60.408 95.661 60.408C98.157 60.408 100.013 60.6 101.229 60.984C102.445 61.368 103.277 62.04 103.725 63C104.237 63.96 104.525 64.824 104.589 65.592C104.717 66.296 104.781 67.384 104.781 68.856V102.456C104.781 103.928 104.717 105.048 104.589 105.816C104.525 106.52 104.269 107.352 103.821 108.312C102.925 109.976 100.717 110.808 97.197 110.808C93.741 110.808 91.405 110.392 90.189 109.56C89.037 108.664 88.365 107.384 88.173 105.72C85.805 109.112 81.837 110.808 76.269 110.808C70.765 110.808 65.645 108.28 60.909 103.224C56.173 98.168 53.805 92.312 53.805 85.656C53.805 78.936 56.173 73.08 60.909 68.088C65.709 63.032 70.957 60.504 76.653 60.504C78.829 60.504 80.813 60.888 82.605 61.656C84.397 62.424 85.645 63.16 86.349 63.864C87.053 64.504 87.629 65.144 88.077 65.784ZM70.605 85.752C70.605 87.864 71.437 89.784 73.101 91.512C74.765 93.176 76.781 94.008 79.149 94.008C81.517 94.008 83.469 93.144 85.005 91.416C86.605 89.688 87.405 87.8 87.405 85.752C87.405 83.64 86.637 81.688 85.101 79.896C83.629 78.104 81.613 77.208 79.053 77.208C76.557 77.208 74.509 78.104 72.909 79.896C71.373 81.688 70.605 83.64 70.605 85.752ZM133.84 60.408C140.24 60.408 145.552 62.872 149.776 67.8C154.065 72.664 156.209 78.616 156.209 85.656V102.552C156.209 104.024 156.145 105.144 156.016 105.912C155.952 106.616 155.697 107.416 155.249 108.312C154.353 110.04 151.857 110.904 147.76 110.904C143.216 110.904 140.592 109.72 139.889 107.352C139.504 106.264 139.312 104.632 139.312 102.456V85.56C139.312 82.936 138.544 80.888 137.009 79.416C135.536 77.944 133.52 77.208 130.96 77.208C128.464 77.208 126.416 77.976 124.816 79.512C123.28 81.048 122.512 83.064 122.512 85.56V102.552C122.512 104.024 122.448 105.144 122.32 105.912C122.256 106.616 121.968 107.416 121.456 108.312C120.624 110.04 118.16 110.904 114.064 110.904C110.032 110.904 107.568 110.04 106.672 108.312C106.224 107.352 105.936 106.52 105.808 105.816C105.744 105.048 105.712 103.928 105.712 102.456V68.472C105.712 67.064 105.744 66.008 105.808 65.304C105.936 64.536 106.256 63.704 106.768 62.808C107.664 61.208 110.128 60.408 114.16 60.408C118.064 60.408 120.464 61.144 121.36 62.616C122 63.704 122.32 65.016 122.32 66.552C122.576 66.104 123.152 65.464 124.048 64.632C124.944 63.8 125.808 63.128 126.64 62.616C128.816 61.144 131.216 60.408 133.84 60.408ZM191.099 39.384C191.611 38.424 192.475 37.752 193.691 37.368C194.907 36.984 196.507 36.792 198.491 36.792C200.539 36.792 202.171 36.984 203.387 37.368C204.603 37.752 205.435 38.424 205.883 39.384C206.395 40.344 206.683 41.208 206.747 41.976C206.875 42.68 206.939 43.768 206.939 45.24V102.552C206.939 104.024 206.875 105.144 206.747 105.912C206.683 106.616 206.395 107.416 205.883 108.312C204.923 110.04 202.203 110.904 197.723 110.904C193.307 110.904 190.843 109.336 190.331 106.2C187.643 109.272 183.899 110.808 179.099 110.808C173.339 110.808 168.091 108.312 163.355 103.32C158.619 98.264 156.251 92.408 156.251 85.752C156.251 79.032 158.619 73.144 163.355 68.088C168.155 63.032 173.403 60.504 179.099 60.504C183.835 60.504 187.515 62.104 190.139 65.304V45.144C190.139 43.672 190.171 42.584 190.235 41.88C190.363 41.112 190.651 40.28 191.099 39.384ZM175.547 91.512C177.211 93.24 179.227 94.104 181.595 94.104C183.963 94.104 185.915 93.24 187.451 91.512C189.051 89.784 189.851 87.896 189.851 85.848C189.851 83.736 189.083 81.784 187.547 79.992C186.075 78.2 184.059 77.304 181.499 77.304C178.939 77.304 176.891 78.2 175.355 79.992C173.819 81.72 173.051 83.64 173.051 85.752C173.051 87.864 173.883 89.784 175.547 91.512Z" fill="#5E00D7"/>
<line x1="43" y1="56" x2="179" y2="56" stroke="#5E00D7" stroke-width="4" stroke-linecap="round"/>
<path d="M46.2 37.392C46.2 40.304 45.36 42.6373 43.68 44.392C42 46.1467 39.9653 47.304 37.576 47.864V51.448C37.576 52.7547 37.4453 53.6693 37.184 54.192C36.96 54.7147 36.6053 55.0693 36.12 55.256C35.672 55.4427 35.056 55.536 34.272 55.536C33.488 55.536 32.8533 55.4427 32.368 55.256C31.92 55.0693 31.6027 54.7333 31.416 54.248C31.1547 53.6133 31.024 52.6613 31.024 51.392V47.92C29.4933 47.584 28.112 47.024 26.88 46.24C25.648 45.456 24.7893 44.7653 24.304 44.168L23.576 43.216C22.792 42.208 22.4 41.3307 22.4 40.584C22.4 39.8373 23.0347 38.848 24.304 37.616C25.0507 36.9067 25.8347 36.552 26.656 36.552C27.5147 36.552 28.6907 37.2987 30.184 38.792C31.3413 40.2107 32.648 40.92 34.104 40.92C36.8667 40.92 38.248 39.7813 38.248 37.504C38.248 36.6827 37.7253 36.048 36.68 35.6C35.6347 35.152 34.3653 34.76 32.872 34.424C31.3787 34.0507 29.8853 33.5653 28.392 32.968C26.8987 32.3707 25.6293 31.344 24.584 29.888C23.5387 28.432 23.016 26.584 23.016 24.344C23.016 22.104 23.7253 20.088 25.144 18.296C26.5627 16.504 28.5227 15.3467 31.024 14.824V11.688C31.024 10.4187 31.136 9.504 31.36 8.944C31.7333 8.048 32.7227 7.6 34.328 7.6C35.336 7.6 36.0827 7.824 36.568 8.272C37.0907 8.68267 37.3893 9.13066 37.464 9.616C37.5387 10.1013 37.576 10.8107 37.576 11.744V14.88C38.6213 15.104 39.5733 15.4213 40.432 15.832C41.2907 16.2427 41.888 16.5787 42.224 16.84L42.728 17.288L42.952 17.456C43.8853 18.3147 44.352 19.024 44.352 19.584C44.352 20.144 43.904 21.0773 43.008 22.384C42.1493 23.6907 41.1973 24.344 40.152 24.344C39.48 24.344 38.9013 24.176 38.416 23.84C37.968 23.504 37.6133 23.224 37.352 23C37.0907 22.776 36.848 22.5893 36.624 22.44C35.9893 22.0293 35.1867 21.824 34.216 21.824C33.2453 21.824 32.4427 22.0667 31.808 22.552C31.1733 23 30.856 23.6347 30.856 24.456C30.856 25.2773 31.2293 25.9493 31.976 26.472C32.76 26.9573 33.712 27.2933 34.832 27.48C35.952 27.6293 37.184 27.9093 38.528 28.32C39.872 28.6933 41.104 29.1413 42.224 29.664C43.344 30.1867 44.2773 31.12 45.024 32.464C45.808 33.7707 46.2 35.4133 46.2 37.392ZM72.9461 32.744C72.9461 35.0213 72.3675 36.72 71.2101 37.84C70.0901 38.9227 68.8395 39.464 67.4581 39.464H54.1861C54.1861 40.5093 54.8021 41.3867 56.0341 42.096C57.2661 42.8053 58.4981 43.16 59.7301 43.16C61.8955 43.16 63.5941 42.936 64.8261 42.488L65.4421 42.264C66.3381 41.8533 67.0848 41.648 67.6821 41.648C68.8768 41.648 69.9035 42.488 70.7621 44.168C71.2475 45.176 71.4901 46.0347 71.4901 46.744C71.4901 50.0667 67.5141 51.728 59.5621 51.728C56.7995 51.728 54.3355 51.2613 52.1701 50.328C50.0421 49.3573 48.3808 48.088 47.1861 46.52C44.8341 43.496 43.6581 40.1173 43.6581 36.384C43.6581 31.68 45.1701 27.928 48.1941 25.128C51.2555 22.2907 55.0635 20.872 59.6181 20.872C64.8075 20.872 68.6155 22.7013 71.0421 26.36C72.3115 28.3013 72.9461 30.4293 72.9461 32.744ZM61.1301 34.368C62.5488 34.368 63.2581 33.7707 63.2581 32.576C63.2581 31.7173 62.9221 31.0267 62.2501 30.504C61.6155 29.9813 60.6821 29.72 59.4501 29.72C58.2555 29.72 57.0608 30.224 55.8661 31.232C54.6715 32.2027 54.0741 33.248 54.0741 34.368H61.1301ZM80.5197 36.272C80.5197 37.84 81.0424 39.072 82.0877 39.968C83.133 40.8267 84.2344 41.256 85.3917 41.256C86.5864 41.256 87.6877 40.92 88.6957 40.248C89.741 39.5387 90.581 39.184 91.2157 39.184C92.3357 39.184 93.6984 40.1733 95.3037 42.152C96.1624 43.2347 96.5917 44.2053 96.5917 45.064C96.5917 46.4827 95.565 47.808 93.5117 49.04C91.3837 50.5333 88.7704 51.28 85.6717 51.28C82.1997 51.28 78.8584 50.0293 75.6477 47.528C74.117 46.3333 72.8664 44.7467 71.8957 42.768C70.925 40.752 70.4397 38.5493 70.4397 36.16C70.4397 33.7333 70.925 31.5493 71.8957 29.608C72.8664 27.6293 74.117 26.0427 75.6477 24.848C78.7464 22.384 82.0504 21.152 85.5597 21.152C86.9784 21.152 88.3597 21.3573 89.7037 21.768C91.0477 22.1413 92.037 22.5147 92.6717 22.888L93.5677 23.448C94.2397 23.896 94.7624 24.2507 95.1357 24.512C96.1064 25.2587 96.5917 26.1173 96.5917 27.088C96.5917 28.0213 96.1997 29.0853 95.4157 30.28C94.0717 32.3333 92.7837 33.36 91.5517 33.36C90.8424 33.36 89.8344 32.9493 88.5277 32.128C87.8557 31.4933 86.885 31.176 85.6157 31.176C84.3837 31.176 83.2264 31.624 82.1437 32.52C81.061 33.416 80.5197 34.6667 80.5197 36.272ZM94.0494 36.272C94.0494 31.792 95.6174 28.096 98.7534 25.184C101.889 22.272 105.473 20.816 109.505 20.816C113.537 20.816 117.103 22.272 120.201 25.184C123.3 28.0587 124.849 31.736 124.849 36.216C124.849 39.3147 124.047 42.0773 122.441 44.504C120.836 46.8933 118.876 48.6667 116.561 49.824C114.284 50.944 111.913 51.504 109.449 51.504C106.985 51.504 104.596 50.9067 102.281 49.712C99.9667 48.48 98.0067 46.688 96.4014 44.336C94.8334 41.9467 94.0494 39.2587 94.0494 36.272ZM105.753 40.304C106.948 41.2 108.161 41.648 109.393 41.648C110.625 41.648 111.857 41.1813 113.089 40.248C114.321 39.3147 114.937 37.9333 114.937 36.104C114.937 34.2747 114.359 32.912 113.201 32.016C112.044 31.12 110.793 30.672 109.449 30.672C108.105 30.672 106.855 31.1387 105.697 32.072C104.54 33.0053 103.961 34.3867 103.961 36.216C103.961 38.008 104.559 39.3707 105.753 40.304ZM139.556 21.488C143.289 21.488 146.388 22.9253 148.852 25.8C151.353 28.6373 152.604 32.1093 152.604 36.216V46.072C152.604 46.9307 152.566 47.584 152.492 48.032C152.454 48.4427 152.305 48.9093 152.044 49.432C151.521 50.44 150.065 50.944 147.676 50.944C145.025 50.944 143.494 50.2533 143.084 48.872C142.86 48.2373 142.748 47.2853 142.748 46.016V36.16C142.748 34.6293 142.3 33.4347 141.404 32.576C140.545 31.7173 139.369 31.288 137.876 31.288C136.42 31.288 135.225 31.736 134.292 32.632C133.396 33.528 132.948 34.704 132.948 36.16V46.072C132.948 46.9307 132.91 47.584 132.836 48.032C132.798 48.4427 132.63 48.9093 132.332 49.432C131.846 50.44 130.409 50.944 128.02 50.944C125.668 50.944 124.23 50.44 123.708 49.432C123.446 48.872 123.278 48.3867 123.204 47.976C123.166 47.528 123.148 46.8747 123.148 46.016V26.192C123.148 25.3707 123.166 24.7547 123.204 24.344C123.278 23.896 123.465 23.4107 123.764 22.888C124.286 21.9547 125.724 21.488 128.076 21.488C130.353 21.488 131.753 21.9173 132.276 22.776C132.649 23.4107 132.836 24.176 132.836 25.072C132.985 24.8107 133.321 24.4373 133.844 23.952C134.366 23.4667 134.87 23.0747 135.356 22.776C136.625 21.9173 138.025 21.488 139.556 21.488ZM171.556 9.224C171.855 8.664 172.359 8.272 173.068 8.048C173.778 7.824 174.711 7.712 175.868 7.712C177.063 7.712 178.015 7.824 178.724 8.048C179.434 8.272 179.919 8.664 180.18 9.224C180.479 9.784 180.647 10.288 180.684 10.736C180.759 11.1467 180.796 11.7813 180.796 12.64V46.072C180.796 46.9307 180.759 47.584 180.684 48.032C180.647 48.4427 180.479 48.9093 180.18 49.432C179.62 50.44 178.034 50.944 175.42 50.944C172.844 50.944 171.407 50.0293 171.108 48.2C169.54 49.992 167.356 50.888 164.556 50.888C161.196 50.888 158.135 49.432 155.372 46.52C152.61 43.5707 151.228 40.1547 151.228 36.272C151.228 32.352 152.61 28.9173 155.372 25.968C158.172 23.0187 161.234 21.544 164.556 21.544C167.319 21.544 169.466 22.4773 170.996 24.344V12.584C170.996 11.7253 171.015 11.0907 171.052 10.68C171.127 10.232 171.295 9.74666 171.556 9.224ZM162.484 39.632C163.455 40.64 164.631 41.144 166.012 41.144C167.394 41.144 168.532 40.64 169.428 39.632C170.362 38.624 170.828 37.5227 170.828 36.328C170.828 35.096 170.38 33.9573 169.484 32.912C168.626 31.8667 167.45 31.344 165.956 31.344C164.463 31.344 163.268 31.8667 162.372 32.912C161.476 33.92 161.028 35.04 161.028 36.272C161.028 37.504 161.514 38.624 162.484 39.632Z" fill="#5E00D7"/>
</g>
</mask>
<g mask="url(#mask0_5:47)">
<rect y="-3" width="219" height="133" fill="#1B5993"/>
<path d="M238 3.01473L-0.999627 3.01491L-0.999626 114.5L238 3.01473Z" fill="#479499"/>
</g>
<defs>
<clipPath id="clip0_5:47">
<rect width="211" height="121" fill="white"/>
</clipPath>
</defs>
</svg>
