<svg width="75" height="75" viewBox="0 0 75 75" fill="none" xmlns="http://www.w3.org/2000/svg">
<path d="M67.9688 65.625H7.03125C3.14795 65.625 0 62.4771 0 58.5938V16.4062C0 12.5229 3.14795 9.375 7.03125 9.375H67.9688C71.8521 9.375 75 12.5229 75 16.4062V58.5938C75 62.4771 71.8521 65.625 67.9688 65.625ZM16.4062 17.5781C11.8758 17.5781 8.20312 21.2508 8.20312 25.7812C8.20312 30.3117 11.8758 33.9844 16.4062 33.9844C20.9367 33.9844 24.6094 30.3117 24.6094 25.7812C24.6094 21.2508 20.9367 17.5781 16.4062 17.5781ZM9.375 56.25H65.625V39.8438L52.8054 27.0242C52.119 26.3377 51.006 26.3377 50.3194 27.0242L30.4688 46.875L22.3367 38.7429C21.6502 38.0565 20.5373 38.0565 19.8507 38.7429L9.375 49.2188V56.25Z" fill="white"/>
</svg>
