<svg width="50" height="51" viewBox="0 0 50 51" fill="none" xmlns="http://www.w3.org/2000/svg">
<path d="M47.6953 34.6641C47.8984 33.5625 47.8984 32.4375 47.6953 31.3359L49.7109 30.1719C49.9453 30.0391 50.0469 29.7656 49.9688 29.5078C49.4453 27.8203 48.5469 26.2891 47.375 25.0234C47.1953 24.8281 46.9063 24.7812 46.6719 24.9141L44.6563 26.0781C43.8047 25.3516 42.8281 24.7891 41.7734 24.4141V22.0859C41.7734 21.8203 41.5859 21.5859 41.3281 21.5312C39.5859 21.1406 37.8125 21.1562 36.1563 21.5312C35.8984 21.5859 35.7109 21.8203 35.7109 22.0859V24.4141C34.6563 24.7891 33.6797 25.3516 32.8281 26.0781L30.8125 24.9141C30.5859 24.7812 30.2891 24.8281 30.1094 25.0234C28.9375 26.2891 28.0391 27.8203 27.5156 29.5078C27.4375 29.7656 27.5469 30.0391 27.7734 30.1719L29.7891 31.3359C29.5859 32.4375 29.5859 33.5625 29.7891 34.6641L27.7734 35.8281C27.5391 35.9609 27.4375 36.2344 27.5156 36.4922C28.0391 38.1797 28.9375 39.7031 30.1094 40.9766C30.2891 41.1719 30.5781 41.2188 30.8125 41.0859L32.8281 39.9219C33.6797 40.6484 34.6563 41.2109 35.7109 41.5859V43.9141C35.7109 44.1797 35.8984 44.4141 36.1563 44.4687C37.8984 44.8594 39.6719 44.8437 41.3281 44.4687C41.5859 44.4141 41.7734 44.1797 41.7734 43.9141V41.5859C42.8281 41.2109 43.8047 40.6484 44.6563 39.9219L46.6719 41.0859C46.8984 41.2188 47.1953 41.1719 47.375 40.9766C48.5469 39.7109 49.4453 38.1797 49.9688 36.4922C50.0469 36.2344 49.9375 35.9609 49.7109 35.8281L47.6953 34.6641V34.6641ZM38.75 36.7891C36.6563 36.7891 34.9609 35.0859 34.9609 33C34.9609 30.9141 36.6641 29.2109 38.75 29.2109C40.8359 29.2109 42.5391 30.9141 42.5391 33C42.5391 35.0859 40.8438 36.7891 38.75 36.7891ZM17.5 25.5C23.0234 25.5 27.5 21.0234 27.5 15.5C27.5 9.97656 23.0234 5.5 17.5 5.5C11.9766 5.5 7.5 9.97656 7.5 15.5C7.5 21.0234 11.9766 25.5 17.5 25.5ZM33.2188 43.1953C33.0391 43.1016 32.8594 42.9922 32.6875 42.8906L32.0703 43.25C31.6016 43.5156 31.0703 43.6641 30.5391 43.6641C29.6875 43.6641 28.8672 43.3047 28.2813 42.6797C26.8516 41.1328 25.7578 39.25 25.1406 37.2422C24.7109 35.8594 25.2891 34.3984 26.5391 33.6719L27.1563 33.3125C27.1484 33.1094 27.1484 32.9063 27.1563 32.7031L26.5391 32.3438C25.2891 31.625 24.7109 30.1562 25.1406 28.7734C25.2109 28.5469 25.3125 28.3203 25.3906 28.0938C25.0938 28.0703 24.8047 28 24.5 28H23.1953C21.4609 28.7969 19.5313 29.25 17.5 29.25C15.4688 29.25 13.5469 28.7969 11.8047 28H10.5C4.70313 28 0 32.7031 0 38.5V41.75C0 43.8203 1.67969 45.5 3.75 45.5H31.25C32.0391 45.5 32.7734 45.25 33.375 44.8359C33.2813 44.5391 33.2188 44.2344 33.2188 43.9141V43.1953Z" fill="#1B5993"/>
</svg>
